<svg width="18" height="18" viewBox="0 0 18 18" fill="none" xmlns="http://www.w3.org/2000/svg">
<rect x="0.5" y="0.5" width="17" height="17" rx="8.5" stroke="#0B0B0B"/>
<path d="M8.00625 10.92V10.464C8.00625 10.24 8.03425 10.032 8.09025 9.84C8.15425 9.64 8.26225 9.444 8.41425 9.252C8.56625 9.052 8.68225 8.908 8.76225 8.82C8.85025 8.724 9.00225 8.572 9.21825 8.364C9.41025 8.172 9.55425 8.024 9.65025 7.92C9.74625 7.816 9.83825 7.68 9.92625 7.512C10.0143 7.336 10.0583 7.168 10.0583 7.008C10.0583 6.696 9.97025 6.452 9.79425 6.276C9.61825 6.092 9.35025 6 8.99025 6C8.62225 6 8.31425 6.124 8.06625 6.372C7.82625 6.612 7.68625 6.94 7.64625 7.356H6.25425C6.29425 6.572 6.57025 5.952 7.08225 5.496C7.59425 5.032 8.25425 4.8 9.06225 4.8C9.88625 4.8 10.5103 4.996 10.9343 5.388C11.3663 5.78 11.5823 6.284 11.5823 6.9C11.5823 7.284 11.4903 7.62 11.3063 7.908C11.1303 8.188 10.8703 8.496 10.5263 8.832C10.5103 8.848 10.4463 8.908 10.3343 9.012C10.2303 9.108 10.1663 9.168 10.1423 9.192C10.1263 9.216 10.0703 9.272 9.97425 9.36C9.88625 9.448 9.83025 9.512 9.80625 9.552C9.78225 9.584 9.73825 9.64 9.67425 9.72C9.61025 9.8 9.56625 9.868 9.54225 9.924C9.51825 9.972 9.48625 10.036 9.44625 10.116C9.41425 10.188 9.39025 10.26 9.37425 10.332C9.35825 10.396 9.35025 10.464 9.35025 10.536V10.92H8.00625ZM8.66625 13.584C8.39425 13.584 8.16225 13.496 7.97025 13.32C7.77825 13.136 7.68225 12.916 7.68225 12.66C7.68225 12.396 7.77825 12.176 7.97025 12C8.16225 11.816 8.39425 11.724 8.66625 11.724C8.93025 11.724 9.15425 11.816 9.33825 12C9.53025 12.176 9.62625 12.396 9.62625 12.66C9.62625 12.916 9.53025 13.136 9.33825 13.32C9.15425 13.496 8.93025 13.584 8.66625 13.584Z" fill="#0B0B0B"/>
</svg>
