<svg width="20" height="20" viewBox="0 0 20 20" fill="none" xmlns="http://www.w3.org/2000/svg">
<path fill-rule="evenodd" clip-rule="evenodd" d="M19.5411 5.78402C19.6801 5.33213 19.5411 5 18.8794 5H16.6914C16.135 5 15.8785 5.28688 15.7395 5.60317C15.7395 5.60317 14.6269 8.24713 13.0505 9.96447C12.5406 10.4616 12.3088 10.6198 12.0306 10.6198C11.8915 10.6198 11.6902 10.4616 11.6902 10.0097V5.78402C11.6902 5.24163 11.5288 5 11.0651 5H7.62678C7.27904 5 7.06993 5.25169 7.06993 5.49028C7.06993 6.00432 7.85808 6.12301 7.93935 7.56915V10.7102C7.93935 11.3989 7.81182 11.5238 7.53363 11.5238C6.7919 11.5238 4.98757 8.86798 3.91748 5.82927C3.70774 5.23859 3.49738 5 2.93819 5H0.750175C0.125029 5 0 5.28688 0 5.60317C0 6.1681 0.741735 8.97021 3.45377 12.6762C5.26185 15.207 7.80932 16.5789 10.1274 16.5789C11.5182 16.5789 11.6902 16.2742 11.6902 15.7494V13.8366C11.6902 13.2271 11.822 13.1056 12.2624 13.1056C12.5868 13.1056 13.1432 13.2637 14.4413 14.4839C15.925 15.9302 16.1696 16.5789 17.004 16.5789H19.192C19.8171 16.5789 20.1297 16.2742 19.9493 15.6729C19.7521 15.0735 19.0437 14.204 18.1039 13.1734C17.594 12.5857 16.8289 11.9532 16.5972 11.6367C16.2725 11.2299 16.3654 11.0491 16.5972 10.6875C16.5972 10.6875 19.2629 7.02693 19.5411 5.78402Z" fill="white" fill-opacity="1"/>
</svg>
