<svg width="53" height="53" viewBox="0 0 53 53" fill="none" xmlns="http://www.w3.org/2000/svg">
<path d="M26.1999 36.0512C35.9481 36.0512 43.8505 28.1488 43.8505 18.4006C43.8505 8.65245 35.9481 0.75 26.1999 0.75C16.4518 0.75 8.54932 8.65245 8.54932 18.4006C8.54932 28.1488 16.4518 36.0512 26.1999 36.0512Z" stroke="#FFFFFF" stroke-width="1.5" stroke-miterlimit="10"/>
<path d="M26.1999 51.8199C35.9481 51.8199 43.8505 43.9175 43.8505 34.1693C43.8505 24.4211 35.9481 16.5187 26.1999 16.5187C16.4518 16.5187 8.54932 24.4211 8.54932 34.1693C8.54932 43.9175 16.4518 51.8199 26.1999 51.8199Z" stroke="#FFFFFF" stroke-width="1.5" stroke-miterlimit="10"/>
<path d="M18.4006 43.9227C28.1488 43.9227 36.0512 36.0202 36.0512 26.2721C36.0512 16.5239 28.1488 8.62146 18.4006 8.62146C8.65245 8.62146 0.75 16.5239 0.75 26.2721C0.75 36.0202 8.65245 43.9227 18.4006 43.9227Z" stroke="#FFFFFF" stroke-width="1.5" stroke-miterlimit="10"/>
<path d="M33.9743 43.9227C43.7225 43.9227 51.625 36.0202 51.625 26.2721C51.625 16.5239 43.7225 8.62146 33.9743 8.62146C24.2262 8.62146 16.3237 16.5239 16.3237 26.2721C16.3237 36.0202 24.2262 43.9227 33.9743 43.9227Z" stroke="#FFFFFF" stroke-width="1.5" stroke-miterlimit="10"/>
</svg>
