<svg width="20" height="20" viewBox="0 0 20 20" fill="" xmlns="http://www.w3.org/2000/svg">
<path d="M10 2C12.1727 2 12.4453 2.00933 13.2993 2.04867C16.2073 2.182 17.8213 3.79933 17.952 6.702C17.9907 7.55533 18 7.82733 18 10C18 12.1727 17.9907 12.4453 17.9513 13.2987C17.82 16.2067 16.2013 17.8187 13.2987 17.952C12.4453 17.9907 12.1727 18 10 18C7.82733 18 7.55533 17.9907 6.70133 17.952C3.79333 17.8187 2.18133 16.204 2.048 13.2987C2.00933 12.4453 2 12.1727 2 10C2 7.82733 2.00933 7.55533 2.04867 6.70133C2.182 3.79333 3.79667 2.18133 6.702 2.048C7.55533 2.00933 7.82733 2 10 2ZM10 5.19532C7.34659 5.19532 5.19532 7.34659 5.19532 10C5.19532 12.6534 7.34659 14.8055 10 14.8055C12.6534 14.8055 14.8047 12.6542 14.8047 10C14.8047 7.34659 12.6534 5.19532 10 5.19532ZM14.9949 3.88304C14.3743 3.88304 13.8713 4.38596 13.8713 5.00585C13.8713 5.62573 14.3743 6.12865 14.9949 6.12865C15.6148 6.12865 16.117 5.62573 16.117 5.00585C16.117 4.38596 15.6148 3.88304 14.9949 3.88304ZM10 13.1189C8.27758 13.1189 6.88109 11.7232 6.88109 10C6.88109 8.27758 8.27758 6.88109 10 6.88109C11.7224 6.88109 13.1189 8.27758 13.1189 10C13.1189 11.7232 11.7224 13.1189 10 13.1189Z" fill="white" fill-opacity="1"/>
</svg>
